<?xml version="1.0" encoding="UTF-8"?>
<svg xmlns="http://www.w3.org/2000/svg" xmlns:xlink="http://www.w3.org/1999/xlink" width="14px" height="16px" viewBox="0 0 14 16" version="1.1">
<g id="surface1">
<path style=" stroke:none;fill-rule:nonzero;fill:rgb(25.098041%,74.509805%,27.450982%);fill-opacity:1;" d="M 13.90625 14.78125 L 0.300781 14.78125 L 0.300781 15.820312 L 13.90625 15.820312 Z M 13.90625 14.78125 "/>
<path style=" stroke:none;fill-rule:nonzero;fill:rgb(25.098041%,74.509805%,27.450982%);fill-opacity:1;" d="M 7.078125 11.957031 C 3.871094 11.957031 1.261719 9.359375 1.261719 6.164062 C 1.261719 2.96875 3.871094 0.367188 7.078125 0.367188 C 10.285156 0.367188 12.894531 2.96875 12.894531 6.164062 C 12.894531 9.359375 10.285156 11.957031 7.078125 11.957031 Z M 7.078125 1.476562 C 4.484375 1.476562 2.371094 3.582031 2.371094 6.167969 C 2.371094 8.753906 4.484375 10.855469 7.078125 10.855469 C 9.671875 10.855469 11.785156 8.753906 11.785156 6.167969 C 11.78125 3.578125 9.671875 1.476562 7.078125 1.476562 Z M 7.078125 1.476562 "/>
</g>
</svg>
