<?xml version="1.0" encoding="UTF-8"?>
<svg xmlns="http://www.w3.org/2000/svg" xmlns:xlink="http://www.w3.org/1999/xlink" width="16px" height="16px" viewBox="0 0 16 16" version="1.1">
<defs>
<linearGradient id="linear0" gradientUnits="userSpaceOnUse" x1="0" y1="0" x2="1" y2="0" gradientTransform="matrix(-4.063378,3.290459,-3.290459,-4.063378,11.717734,6.90681)">
<stop offset="0" style="stop-color:rgb(0%,32.156863%,80%);stop-opacity:1;"/>
<stop offset="1" style="stop-color:rgb(14.901961%,51.764706%,100%);stop-opacity:1;"/>
</linearGradient>
</defs>
<g id="surface1">
<path style=" stroke:none;fill-rule:nonzero;fill:rgb(100%,100%,100%);fill-opacity:1;" d="M 2.398438 0 L 13.601562 0 C 14.925781 0 16 1.074219 16 2.398438 L 16 13.601562 C 16 14.925781 14.925781 16 13.601562 16 L 2.398438 16 C 1.074219 16 0 14.925781 0 13.601562 L 0 2.398438 C 0 1.074219 1.074219 0 2.398438 0 Z M 2.398438 0 "/>
<path style=" stroke:none;fill-rule:nonzero;fill:rgb(14.901961%,51.764709%,100%);fill-opacity:1;" d="M 13.1875 4.0625 C 13.203125 3.972656 13.179688 3.878906 13.117188 3.808594 C 13.058594 3.738281 12.96875 3.695312 12.878906 3.695312 L 3.140625 3.695312 C 3.046875 3.695312 2.957031 3.734375 2.898438 3.804688 C 2.839844 3.878906 2.8125 3.972656 2.828125 4.0625 L 4.25 12.78125 C 4.273438 12.933594 4.40625 13.042969 4.558594 13.042969 L 11.464844 13.042969 C 11.621094 13.042969 11.753906 12.933594 11.777344 12.78125 Z M 9.09375 9.898438 L 6.929688 9.898438 L 6.34375 6.835938 L 9.617188 6.835938 Z M 9.09375 9.898438 "/>
<path style=" stroke:none;fill-rule:nonzero;fill:url(#linear0);" d="M 12.734375 6.851562 L 9.625 6.851562 L 9.105469 9.898438 L 6.941406 9.898438 L 6.941406 13.046875 L 11.464844 13.046875 C 11.632812 13.046875 11.75 12.929688 11.765625 12.78125 L 12.730469 6.851562 Z M 12.734375 6.851562 "/>
</g>
</svg>
