<?xml version="1.0" encoding="UTF-8"?>
<svg xmlns="http://www.w3.org/2000/svg" xmlns:xlink="http://www.w3.org/1999/xlink" width="16px" height="16px" viewBox="0 0 16 16" version="1.1">
<g id="surface1">
<path style=" stroke:none;fill-rule:nonzero;fill:rgb(0%,0%,0%);fill-opacity:1;" d="M 13.695312 3.121094 L 10.894531 0.320312 C 10.742188 0.171875 10.542969 0.0898438 10.328125 0.0898438 L 2.851562 0.0898438 C 2.414062 0.0898438 2.054688 0.445312 2.054688 0.886719 L 2.054688 15.09375 C 2.054688 15.535156 2.414062 15.894531 2.851562 15.894531 L 13.128906 15.894531 C 13.570312 15.894531 13.929688 15.535156 13.929688 15.09375 L 13.929688 3.6875 C 13.929688 3.472656 13.84375 3.273438 13.695312 3.121094 Z M 10.8125 0.988281 L 13.027344 3.203125 L 11.039062 3.203125 C 10.914062 3.203125 10.8125 3.101562 10.8125 2.976562 Z M 13.128906 15.367188 L 2.851562 15.367188 C 2.703125 15.367188 2.582031 15.246094 2.582031 15.09375 L 2.582031 0.886719 C 2.582031 0.738281 2.703125 0.613281 2.851562 0.613281 L 10.289062 0.613281 L 10.289062 2.976562 C 10.289062 3.390625 10.625 3.730469 11.039062 3.730469 L 13.402344 3.730469 L 13.402344 15.09375 C 13.402344 15.246094 13.28125 15.367188 13.128906 15.367188 Z M 13.128906 15.367188 "/>
<path style=" stroke:none;fill-rule:nonzero;fill:rgb(0%,0%,0%);fill-opacity:1;" d="M 12.0625 5.941406 L 7.429688 5.941406 C 7.285156 5.941406 7.167969 5.820312 7.167969 5.675781 C 7.167969 5.53125 7.285156 5.414062 7.429688 5.414062 L 12.0625 5.414062 C 12.210938 5.414062 12.328125 5.53125 12.328125 5.675781 C 12.328125 5.820312 12.210938 5.941406 12.0625 5.941406 Z M 12.0625 5.941406 "/>
<path style=" stroke:none;fill-rule:nonzero;fill:rgb(0%,0%,0%);fill-opacity:1;" d="M 6.140625 5.941406 L 3.917969 5.941406 C 3.773438 5.941406 3.65625 5.820312 3.65625 5.675781 C 3.65625 5.53125 3.773438 5.414062 3.917969 5.414062 L 6.140625 5.414062 C 6.285156 5.414062 6.402344 5.53125 6.402344 5.675781 C 6.402344 5.820312 6.285156 5.941406 6.140625 5.941406 Z M 6.140625 5.941406 "/>
<path style=" stroke:none;fill-rule:nonzero;fill:rgb(0%,0%,0%);fill-opacity:1;" d="M 7.515625 3.730469 L 3.917969 3.730469 C 3.773438 3.730469 3.65625 3.609375 3.65625 3.464844 C 3.65625 3.320312 3.773438 3.203125 3.917969 3.203125 L 7.515625 3.203125 C 7.664062 3.203125 7.78125 3.320312 7.78125 3.464844 C 7.78125 3.609375 7.660156 3.730469 7.515625 3.730469 Z M 7.515625 3.730469 "/>
<path style=" stroke:none;fill-rule:nonzero;fill:rgb(0%,0%,0%);fill-opacity:1;" d="M 12.0625 7.871094 L 3.917969 7.871094 C 3.773438 7.871094 3.65625 7.753906 3.65625 7.609375 C 3.65625 7.460938 3.773438 7.34375 3.917969 7.34375 L 12.066406 7.34375 C 12.210938 7.34375 12.328125 7.460938 12.328125 7.609375 C 12.328125 7.753906 12.210938 7.871094 12.0625 7.871094 Z M 12.0625 7.871094 "/>
<path style=" stroke:none;fill-rule:nonzero;fill:rgb(0%,0%,0%);fill-opacity:1;" d="M 8.550781 9.804688 L 3.917969 9.804688 C 3.773438 9.804688 3.65625 9.683594 3.65625 9.539062 C 3.65625 9.394531 3.773438 9.277344 3.917969 9.277344 L 8.550781 9.277344 C 8.695312 9.277344 8.816406 9.394531 8.816406 9.539062 C 8.816406 9.683594 8.695312 9.804688 8.550781 9.804688 Z M 8.550781 9.804688 "/>
<path style=" stroke:none;fill-rule:nonzero;fill:rgb(0%,0%,0%);fill-opacity:1;" d="M 12.0625 9.804688 L 9.84375 9.804688 C 9.699219 9.804688 9.578125 9.683594 9.578125 9.539062 C 9.578125 9.394531 9.699219 9.277344 9.84375 9.277344 L 12.0625 9.277344 C 12.210938 9.277344 12.328125 9.394531 12.328125 9.539062 C 12.328125 9.683594 12.210938 9.804688 12.0625 9.804688 Z M 12.0625 9.804688 "/>
<path style=" stroke:none;fill-rule:nonzero;fill:rgb(0%,0%,0%);fill-opacity:1;" d="M 12.0625 11.734375 L 3.917969 11.734375 C 3.773438 11.734375 3.65625 11.617188 3.65625 11.472656 C 3.65625 11.328125 3.773438 11.207031 3.917969 11.207031 L 12.066406 11.207031 C 12.210938 11.207031 12.328125 11.328125 12.328125 11.472656 C 12.328125 11.617188 12.210938 11.734375 12.0625 11.734375 Z M 12.0625 11.734375 "/>
<path style=" stroke:none;fill-rule:nonzero;fill:rgb(0%,0%,0%);fill-opacity:1;" d="M 12.0625 13.667969 L 9.84375 13.667969 C 9.699219 13.667969 9.578125 13.550781 9.578125 13.402344 C 9.578125 13.257812 9.699219 13.140625 9.84375 13.140625 L 12.0625 13.140625 C 12.210938 13.140625 12.328125 13.257812 12.328125 13.402344 C 12.328125 13.550781 12.210938 13.667969 12.0625 13.667969 Z M 12.0625 13.667969 "/>
</g>
</svg>
