<?xml version="1.0" encoding="UTF-8"?>
<svg xmlns="http://www.w3.org/2000/svg" xmlns:xlink="http://www.w3.org/1999/xlink" width="16px" height="15px" viewBox="0 0 15 15" version="1.1">
<g id="surface1">
<path style=" stroke:none;fill-rule:nonzero;fill:rgb(88.627452%,26.274511%,16.078432%);fill-opacity:1;" d="M 14.75 5.9375 L 14.730469 5.882812 L 12.6875 0.347656 C 12.644531 0.242188 12.574219 0.148438 12.476562 0.0859375 C 12.28125 -0.0390625 12.035156 -0.0273438 11.851562 0.121094 C 11.765625 0.195312 11.703125 0.292969 11.671875 0.40625 L 10.292969 4.785156 L 4.710938 4.785156 L 3.332031 0.40625 C 3.300781 0.292969 3.238281 0.195312 3.152344 0.121094 C 2.96875 -0.0273438 2.722656 -0.0390625 2.527344 0.0859375 C 2.429688 0.148438 2.359375 0.238281 2.316406 0.347656 L 0.269531 5.878906 L 0.25 5.933594 C -0.351562 7.574219 0.160156 9.429688 1.507812 10.484375 L 1.515625 10.488281 L 1.535156 10.503906 L 4.644531 12.921875 L 6.183594 14.132812 L 7.121094 14.867188 C 7.34375 15.042969 7.65625 15.042969 7.882812 14.867188 L 8.820312 14.132812 L 10.359375 12.921875 L 13.488281 10.488281 L 13.496094 10.484375 C 14.839844 9.425781 15.351562 7.574219 14.75 5.9375 Z M 14.75 5.9375 "/>
<path style=" stroke:none;fill-rule:nonzero;fill:rgb(98.823529%,42.745098%,14.901961%);fill-opacity:1;" d="M 14.75 5.9375 L 14.730469 5.882812 C 13.734375 6.09375 12.796875 6.53125 11.984375 7.164062 L 7.5 10.683594 C 9.027344 11.882812 10.355469 12.925781 10.355469 12.925781 L 13.484375 10.492188 L 13.492188 10.484375 C 14.839844 9.429688 15.351562 7.574219 14.75 5.9375 Z M 14.75 5.9375 "/>
<path style=" stroke:none;fill-rule:nonzero;fill:rgb(98.823529%,63.921571%,14.901961%);fill-opacity:1;" d="M 4.644531 12.925781 L 6.183594 14.136719 L 7.121094 14.871094 C 7.34375 15.046875 7.65625 15.046875 7.882812 14.871094 L 8.820312 14.136719 L 10.359375 12.925781 C 10.359375 12.925781 9.027344 11.878906 7.5 10.683594 C 5.972656 11.878906 4.644531 12.925781 4.644531 12.925781 Z M 4.644531 12.925781 "/>
<path style=" stroke:none;fill-rule:nonzero;fill:rgb(98.823529%,42.745098%,14.901961%);fill-opacity:1;" d="M 3.015625 7.164062 C 2.203125 6.53125 1.265625 6.089844 0.269531 5.878906 L 0.25 5.933594 C -0.351562 7.574219 0.160156 9.429688 1.507812 10.484375 L 1.515625 10.488281 L 1.535156 10.503906 L 4.644531 12.921875 C 4.644531 12.921875 5.972656 11.878906 7.5 10.679688 Z M 3.015625 7.164062 "/>
</g>
</svg>
