<?xml version="1.0" encoding="UTF-8"?>
<svg xmlns="http://www.w3.org/2000/svg" xmlns:xlink="http://www.w3.org/1999/xlink" width="16px" height="16px" viewBox="0 0 16 16" version="1.1">
<g id="surface1">
<path style=" stroke:none;fill-rule:nonzero;fill:rgb(89.803922%,20.784314%,67.058825%);fill-opacity:1;" d="M 2.296875 12.105469 L 1.722656 11.773438 L 8.128906 0.679688 L 8.703125 1.011719 Z M 2.296875 12.105469 "/>
<path style=" stroke:none;fill-rule:nonzero;fill:rgb(89.803922%,20.784314%,67.058825%);fill-opacity:1;" d="M 1.59375 10.886719 L 14.402344 10.886719 L 14.402344 11.550781 L 1.59375 11.550781 Z M 1.59375 10.886719 "/>
<path style=" stroke:none;fill-rule:nonzero;fill:rgb(89.803922%,20.784314%,67.058825%);fill-opacity:1;" d="M 8.253906 14.960938 L 1.84375 11.261719 L 2.175781 10.6875 L 8.585938 14.386719 Z M 8.253906 14.960938 "/>
<path style=" stroke:none;fill-rule:nonzero;fill:rgb(89.803922%,20.784314%,67.058825%);fill-opacity:1;" d="M 13.820312 5.316406 L 7.414062 1.617188 L 7.746094 1.042969 L 14.152344 4.742188 Z M 13.820312 5.316406 "/>
<path style=" stroke:none;fill-rule:nonzero;fill:rgb(89.803922%,20.784314%,67.058825%);fill-opacity:1;" d="M 2.179688 5.316406 L 1.847656 4.742188 L 8.253906 1.039062 L 8.585938 1.617188 Z M 2.179688 5.316406 "/>
<path style=" stroke:none;fill-rule:nonzero;fill:rgb(89.803922%,20.784314%,67.058825%);fill-opacity:1;" d="M 13.703125 12.105469 L 7.296875 1.011719 L 7.871094 0.679688 L 14.277344 11.773438 Z M 13.703125 12.105469 "/>
<path style=" stroke:none;fill-rule:nonzero;fill:rgb(89.803922%,20.784314%,67.058825%);fill-opacity:1;" d="M 2.101562 4.300781 L 2.765625 4.300781 L 2.765625 11.699219 L 2.101562 11.699219 Z M 2.101562 4.300781 "/>
<path style=" stroke:none;fill-rule:nonzero;fill:rgb(89.803922%,20.784314%,67.058825%);fill-opacity:1;" d="M 13.234375 4.300781 L 13.898438 4.300781 L 13.898438 11.699219 L 13.234375 11.699219 Z M 13.234375 4.300781 "/>
<path style=" stroke:none;fill-rule:nonzero;fill:rgb(89.803922%,20.784314%,67.058825%);fill-opacity:1;" d="M 8.140625 14.679688 L 7.851562 14.175781 L 13.425781 10.960938 L 13.714844 11.460938 Z M 8.140625 14.679688 "/>
<path style=" stroke:none;fill-rule:nonzero;fill:rgb(89.803922%,20.784314%,67.058825%);fill-opacity:1;" d="M 14.78125 11.914062 C 14.394531 12.585938 13.539062 12.8125 12.871094 12.429688 C 12.203125 12.042969 11.976562 11.1875 12.359375 10.519531 C 12.742188 9.851562 13.601562 9.625 14.269531 10.007812 C 14.941406 10.394531 15.167969 11.246094 14.78125 11.914062 "/>
<path style=" stroke:none;fill-rule:nonzero;fill:rgb(89.803922%,20.784314%,67.058825%);fill-opacity:1;" d="M 3.636719 5.480469 C 3.253906 6.148438 2.394531 6.375 1.726562 5.992188 C 1.058594 5.609375 0.832031 4.753906 1.214844 4.085938 C 1.601562 3.414062 2.457031 3.1875 3.125 3.570312 C 3.792969 3.960938 4.019531 4.8125 3.636719 5.480469 "/>
<path style=" stroke:none;fill-rule:nonzero;fill:rgb(89.803922%,20.784314%,67.058825%);fill-opacity:1;" d="M 1.21875 11.914062 C 0.835938 11.246094 1.0625 10.394531 1.730469 10.007812 C 2.398438 9.625 3.253906 9.851562 3.640625 10.519531 C 4.023438 11.1875 3.796875 12.039062 3.128906 12.429688 C 2.457031 12.8125 1.605469 12.585938 1.21875 11.914062 "/>
<path style=" stroke:none;fill-rule:nonzero;fill:rgb(89.803922%,20.784314%,67.058825%);fill-opacity:1;" d="M 12.363281 5.480469 C 11.980469 4.8125 12.207031 3.960938 12.875 3.570312 C 13.542969 3.1875 14.394531 3.414062 14.785156 4.085938 C 15.167969 4.753906 14.941406 5.605469 14.273438 5.992188 C 13.605469 6.375 12.746094 6.148438 12.363281 5.480469 "/>
<path style=" stroke:none;fill-rule:nonzero;fill:rgb(89.803922%,20.784314%,67.058825%);fill-opacity:1;" d="M 8 15.832031 C 7.226562 15.832031 6.605469 15.207031 6.605469 14.4375 C 6.605469 13.664062 7.226562 13.039062 8 13.039062 C 8.773438 13.039062 9.394531 13.664062 9.394531 14.4375 C 9.394531 15.203125 8.773438 15.832031 8 15.832031 "/>
<path style=" stroke:none;fill-rule:nonzero;fill:rgb(89.803922%,20.784314%,67.058825%);fill-opacity:1;" d="M 8 2.960938 C 7.226562 2.960938 6.605469 2.335938 6.605469 1.5625 C 6.605469 0.792969 7.226562 0.167969 8 0.167969 C 8.773438 0.167969 9.394531 0.792969 9.394531 1.5625 C 9.394531 2.335938 8.773438 2.960938 8 2.960938 "/>
</g>
</svg>
