<?xml version="1.0" encoding="UTF-8"?>
<svg xmlns="http://www.w3.org/2000/svg" xmlns:xlink="http://www.w3.org/1999/xlink" width="16px" height="16px" viewBox="0 0 16 15" version="1.1">
<g id="surface1">
<path style=" stroke:none;fill-rule:nonzero;fill:rgb(19.607843%,42.352942%,89.803922%);fill-opacity:1;" d="M 7.945312 0.214844 C 7.808594 0.222656 7.671875 0.253906 7.546875 0.3125 L 2.140625 2.804688 C 1.855469 2.9375 1.652344 3.183594 1.582031 3.476562 L 0.246094 9.082031 C 0.183594 9.34375 0.234375 9.617188 0.386719 9.839844 C 0.40625 9.867188 0.425781 9.894531 0.445312 9.917969 L 4.1875 14.414062 C 4.386719 14.648438 4.683594 14.785156 4.996094 14.785156 L 11 14.785156 C 11.3125 14.785156 11.613281 14.648438 11.808594 14.414062 L 15.550781 9.917969 C 15.746094 9.683594 15.820312 9.375 15.75 9.082031 L 14.414062 3.476562 C 14.34375 3.183594 14.136719 2.9375 13.855469 2.804688 L 8.445312 0.3125 C 8.289062 0.238281 8.117188 0.207031 7.945312 0.214844 Z M 7.945312 0.214844 "/>
<path style="fill-rule:nonzero;fill:rgb(100%,100%,100%);fill-opacity:1;stroke-width:0.25;stroke-linecap:butt;stroke-linejoin:miter;stroke:rgb(100%,100%,100%);stroke-opacity:1;stroke-miterlimit:4;" d="M 367.64958 274.019583 C 359.706465 274.019583 353.175459 281.332083 353.175459 290.289896 C 353.175459 290.472708 353.175459 290.655521 353.175459 290.655521 C 353.175459 291.935208 352.998946 293.397708 353.175459 294.494583 C 353.351973 299.613333 354.411055 303.635208 355.11711 308.388333 C 356.352705 318.625833 357.411788 327.035208 356.705733 334.896146 C 356.176192 337.821146 353.881514 340.563333 351.939864 342.391458 L 351.586836 348.607083 C 342.937666 349.338333 334.111983 350.800833 325.286299 352.628958 C 287.159346 361.403958 254.504317 380.964896 229.615889 407.289896 C 228.027266 406.193021 225.203047 404.182083 224.320479 403.633646 C 221.672774 403.999271 219.025069 404.730521 215.671309 402.719583 C 209.140303 398.332083 203.138838 392.299271 195.901778 384.986771 C 192.724532 381.330521 190.25334 378.039896 186.370039 374.749271 C 185.487471 373.835208 184.075362 372.921146 183.01628 372.007083 C 180.015547 369.630521 176.30876 368.350833 172.955 368.168021 C 168.365645 368.168021 164.129317 369.813333 161.305098 373.469583 C 156.186202 379.685208 157.774825 389.374271 164.835371 395.041458 C 164.835371 395.041458 165.011885 395.041458 165.011885 395.041458 C 166.070967 395.955521 167.130049 396.869583 168.012618 397.600833 C 172.248946 400.708646 176.132246 402.171146 180.192061 404.730521 C 189.017745 410.032083 196.254805 414.602396 201.903243 419.903958 C 204.19792 422.280521 204.550948 426.485208 204.903975 428.313333 L 209.49333 432.518021 C 184.428389 470.360208 172.955 516.977396 179.66252 564.508646 L 173.661055 566.336771 C 172.072432 568.347708 169.777754 571.638333 167.306563 572.552396 C 159.716475 574.928958 151.420332 575.843021 141.182539 576.939896 C 136.240157 577.305521 132.180342 577.122708 127.061446 578.036771 C 126.002364 578.219583 124.413741 578.768021 123.178145 578.950833 C 123.178145 578.950833 123.001631 578.950833 123.001631 578.950833 C 123.001631 578.950833 122.825118 579.133646 122.825118 579.133646 C 114.175948 581.144583 108.704024 589.005521 110.469161 596.866458 C 112.234297 604.727396 120.706954 609.480521 129.356123 607.469583 C 129.356123 607.469583 129.532637 607.469583 129.532637 607.469583 C 129.709151 607.469583 129.709151 607.469583 129.885664 607.469583 C 131.12126 607.103958 132.53337 606.921146 133.592452 606.555521 C 138.534834 605.275833 142.241621 603.264896 146.654463 601.619583 C 156.362715 598.146146 164.482344 595.221146 172.248946 594.124271 C 175.426192 593.758646 178.956465 596.135208 180.721602 597.049271 L 187.076094 595.952396 C 201.726729 641.472708 232.440108 678.218021 271.273116 701.252396 L 268.625411 707.650833 C 269.684493 710.027396 270.743575 713.500833 270.03752 715.877396 C 267.213301 723.189896 262.270918 731.050833 256.798995 739.643021 C 254.151289 743.664896 251.327071 746.772708 248.855879 751.343021 C 248.326338 752.439896 247.620284 754.085208 247.090743 755.364896 C 243.207442 763.408646 246.031661 772.549271 253.268721 776.022708 C 260.505782 779.678958 269.507979 775.839896 273.39128 767.796146 C 273.39128 767.796146 273.39128 767.796146 273.567793 767.796146 C 274.097334 766.699271 274.803389 765.053958 275.33293 764.139896 C 277.451094 759.386771 277.980635 755.182083 279.569258 750.611771 C 283.452559 740.922708 285.570723 730.685208 290.866133 724.469583 C 292.278243 722.641458 294.749434 721.910208 297.220625 721.361771 L 300.397871 715.328958 C 334.46501 728.308646 372.41545 731.782083 410.365889 723.189896 C 419.015059 721.178958 427.311202 718.619583 435.43083 715.694583 C 436.313399 717.339896 438.078536 720.447708 438.608077 721.361771 C 441.079268 722.093021 443.726973 722.458646 446.021651 725.749271 C 450.081465 732.696146 452.72917 740.739896 456.08293 750.428958 C 457.495039 754.999271 458.201094 759.021146 460.319258 763.774271 C 460.848799 764.871146 461.554854 766.333646 462.084395 767.613333 C 465.967696 775.657083 474.969893 779.313333 482.383467 775.839896 C 489.620528 772.366458 492.268233 763.043021 488.561446 754.999271 C 488.031905 753.902396 487.149336 752.257083 486.619795 751.160208 C 484.148604 746.589896 481.500899 743.482083 478.853194 739.460208 C 473.204756 730.868021 468.615401 723.555521 465.791182 716.243021 C 464.555586 712.403958 465.967696 710.027396 467.026778 707.650833 C 466.320723 706.919583 465.261641 703.446146 464.555586 701.800833 C 504.977217 677.852396 534.808028 639.644583 548.752608 595.586771 C 550.694258 595.952396 554.048018 596.500833 555.1071 596.683646 C 557.225264 595.221146 559.343428 593.393021 563.226729 593.758646 C 570.99333 594.855521 579.112959 597.780521 588.821211 601.253958 C 593.234053 602.899271 596.94084 604.910208 601.883223 606.189896 C 602.942305 606.555521 604.530928 606.738333 605.59001 607.103958 C 605.766524 607.103958 605.766524 607.103958 605.943038 607.103958 C 605.943038 607.286771 606.119551 607.286771 606.119551 607.286771 C 614.768721 609.114896 623.241377 604.361771 625.006514 596.500833 C 626.771651 588.639896 621.299727 580.778958 612.650557 578.768021 C 611.414961 578.402396 609.649825 578.036771 608.414229 577.671146 C 603.295332 576.757083 599.235518 576.939896 594.469649 576.574271 C 584.231856 575.477396 575.7592 574.563333 568.169112 572.369583 C 565.168379 571.089896 562.873702 567.433646 561.81462 565.971146 L 555.989668 564.143021 C 558.990401 542.022708 558.107832 518.988333 552.812422 495.953958 C 547.517012 472.736771 538.161788 451.347708 525.452803 432.518021 C 527.041426 431.238333 529.865645 428.678958 530.748213 427.947708 C 530.924727 425.388333 530.748213 422.646146 533.395918 419.721146 C 539.22087 414.236771 546.45793 409.849271 555.1071 404.364896 C 559.343428 401.988333 563.226729 400.343021 567.286543 397.235208 C 568.345625 396.503958 569.581221 395.407083 570.463789 394.675833 C 577.524336 389.008646 579.112959 379.502396 574.170577 373.103958 C 569.05168 366.888333 559.343428 366.157083 552.282881 371.824271 C 551.400313 372.555521 549.988204 373.652396 549.105635 374.383646 C 545.222334 377.857083 542.751143 381.147708 539.397383 384.621146 C 532.160323 391.933646 526.158858 398.149271 519.627852 402.536771 C 516.803633 404.182083 512.743819 403.633646 510.802168 403.450833 L 505.330245 407.472708 C 473.557784 374.200833 430.311934 352.811771 383.888838 348.789896 C 383.712325 346.778958 383.535811 343.305521 383.535811 342.208646 C 381.594161 340.380521 379.299483 338.918021 378.769942 334.896146 C 378.063887 327.035208 379.122969 318.625833 380.358565 308.388333 C 381.06462 303.635208 382.123702 299.613333 382.476729 294.494583 C 382.476729 293.214896 382.300215 291.569583 382.300215 290.289896 C 382.300215 281.332083 375.769209 274.019583 367.64958 274.019583 Z M 349.468672 387.546146 L 345.05583 464.144583 L 344.702803 464.327396 C 344.526289 471.274271 338.877852 476.758646 331.817305 476.758646 C 328.993086 476.758646 326.345381 475.844583 324.227217 474.199271 L 324.227217 474.382083 L 261.211836 429.775833 C 280.62834 410.763333 305.340254 396.686771 333.758955 390.105521 C 339.054366 389.008646 344.173262 388.094583 349.468672 387.546146 Z M 386.007002 387.546146 C 419.368086 391.568021 450.081465 406.741458 473.734297 429.775833 L 411.248457 474.016458 L 410.89543 474.016458 C 405.423506 478.038333 397.656905 476.941458 393.244063 471.639896 C 391.478926 469.446146 390.596358 466.703958 390.419844 464.144583 Z M 238.441573 458.294583 L 295.808516 509.664896 L 295.808516 510.030521 C 300.927413 514.600833 301.809981 522.461771 297.397139 527.763333 C 295.632002 529.957083 293.337325 531.602396 290.68962 532.150833 L 290.68962 532.516458 L 217.083418 553.722708 C 213.376631 519.536771 221.319746 486.082083 238.441573 458.294583 Z M 496.681075 458.477396 C 505.153731 472.188333 511.684737 487.727396 515.391524 504.363333 C 519.274825 520.999271 520.157393 537.452396 518.56877 553.539896 L 444.609541 532.150833 L 444.609541 531.785208 C 437.902022 529.957083 433.842207 523.375833 435.43083 516.611771 C 436.136885 513.686771 437.548995 511.493021 439.490645 509.664896 L 439.490645 509.482083 Z M 355.999678 513.686771 L 379.475996 513.686771 L 394.126631 531.968021 L 388.831221 554.819583 L 367.64958 565.057083 L 346.46794 554.819583 L 341.349043 531.968021 Z M 431.371016 576.208646 C 432.430098 576.208646 433.312666 576.391458 434.371748 576.574271 L 434.548262 576.391458 L 510.625655 589.188333 C 499.505293 620.449271 478.147139 647.688333 449.728438 665.786771 L 420.074141 594.489896 L 420.250655 594.307083 C 417.426436 587.908646 420.250655 580.596146 426.428633 577.488333 C 428.017256 576.757083 429.782393 576.391458 431.371016 576.208646 Z M 303.398604 576.574271 C 309.223555 576.757083 314.518965 580.778958 315.931075 586.628958 C 316.460616 589.371146 316.107588 592.113333 315.22502 594.489896 L 315.401534 594.855521 L 286.100264 665.603958 C 258.740645 648.053958 237.029463 621.728958 225.379561 589.553958 L 300.750899 576.574271 L 300.927413 576.757083 C 301.809981 576.574271 302.692549 576.574271 303.398604 576.574271 Z M 367.296553 607.469583 C 369.238204 607.469583 371.356368 607.835208 373.298018 608.932083 C 375.769209 610.028958 377.887373 612.039896 379.122969 614.416458 L 379.299483 614.416458 L 416.543868 681.508646 C 411.777998 683.153958 406.835616 684.616458 401.716719 685.713333 C 373.298018 692.294583 344.879317 690.283646 319.108321 681.508646 L 356.352705 614.416458 C 358.647383 610.211771 362.883711 607.652396 367.296553 607.469583 Z M 367.296553 607.469583 " transform="matrix(0.02213,0,0,0.0213675,-0.139997,-3.734026)"/>
</g>
</svg>
