<?xml version="1.0" encoding="UTF-8"?>
<svg xmlns="http://www.w3.org/2000/svg" xmlns:xlink="http://www.w3.org/1999/xlink" width="16px" height="16px" viewBox="0 0 16 16" version="1.1">
<g id="surface1">
<path style=" stroke:none;fill-rule:nonzero;fill:rgb(10.196079%,9.803922%,9.803922%);fill-opacity:1;" d="M 6.449219 1.421875 C 6.273438 1.246094 6.027344 1.136719 5.753906 1.136719 C 5.480469 1.136719 5.234375 1.246094 5.0625 1.421875 L 5.058594 1.421875 C 4.882812 1.597656 4.773438 1.84375 4.773438 2.117188 C 4.773438 2.390625 4.882812 2.632812 5.058594 2.808594 L 5.0625 2.8125 C 5.234375 2.988281 5.480469 3.097656 5.753906 3.097656 C 6.027344 3.097656 6.273438 2.988281 6.449219 2.8125 L 6.449219 2.808594 C 6.625 2.632812 6.734375 2.390625 6.734375 2.117188 C 6.734375 1.84375 6.625 1.597656 6.449219 1.421875 Z M 5.753906 14.851562 C 6.027344 14.851562 6.273438 14.738281 6.449219 14.566406 L 6.449219 14.5625 C 6.625 14.386719 6.734375 14.140625 6.734375 13.871094 C 6.734375 13.597656 6.625 13.351562 6.449219 13.175781 C 6.273438 12.996094 6.027344 12.886719 5.753906 12.886719 C 5.480469 12.886719 5.234375 12.996094 5.0625 13.175781 L 5.058594 13.175781 C 4.882812 13.351562 4.773438 13.597656 4.773438 13.871094 C 4.773438 14.140625 4.882812 14.386719 5.058594 14.5625 L 5.0625 14.566406 C 5.234375 14.738281 5.480469 14.851562 5.753906 14.851562 Z M 11.097656 11.878906 C 11.339844 11.816406 11.5625 11.660156 11.695312 11.421875 L 11.714844 11.390625 C 11.832031 11.164062 11.855469 10.90625 11.789062 10.679688 C 11.726562 10.433594 11.566406 10.21875 11.332031 10.082031 L 11.320312 10.070312 C 11.089844 9.945312 10.828125 9.917969 10.589844 9.984375 C 10.34375 10.042969 10.125 10.207031 9.992188 10.441406 C 9.855469 10.671875 9.828125 10.941406 9.894531 11.1875 C 9.960938 11.429688 10.117188 11.648438 10.351562 11.785156 C 10.585938 11.917969 10.851562 11.941406 11.097656 11.878906 Z M 6.757812 6.988281 C 6.5 6.730469 6.144531 6.570312 5.753906 6.570312 C 5.359375 6.570312 5.003906 6.730469 4.75 6.988281 C 4.492188 7.246094 4.335938 7.597656 4.335938 7.992188 C 4.335938 8.386719 4.492188 8.742188 4.75 9 C 5.003906 9.253906 5.359375 9.414062 5.753906 9.414062 C 6.144531 9.414062 6.5 9.253906 6.757812 9 C 7.015625 8.742188 7.171875 8.386719 7.171875 7.992188 C 7.171875 7.597656 7.015625 7.246094 6.757812 6.988281 Z M 6.191406 5.316406 C 6.761719 5.410156 7.277344 5.683594 7.667969 6.078125 L 7.671875 6.078125 C 7.734375 6.140625 7.792969 6.207031 7.851562 6.277344 L 8.832031 5.710938 C 8.699219 5.3125 8.691406 4.898438 8.796875 4.507812 C 8.9375 3.984375 9.277344 3.515625 9.785156 3.222656 L 9.800781 3.214844 C 10.304688 2.929688 10.875 2.871094 11.390625 3.011719 C 11.910156 3.148438 12.382812 3.488281 12.675781 3.996094 C 12.96875 4.503906 13.027344 5.082031 12.886719 5.601562 C 12.75 6.125 12.40625 6.59375 11.902344 6.886719 L 11.765625 6.964844 L 11.753906 6.964844 C 11.285156 7.1875 10.769531 7.222656 10.292969 7.097656 C 9.90625 6.996094 9.546875 6.777344 9.269531 6.46875 L 8.292969 7.035156 C 8.402344 7.332031 8.464844 7.652344 8.464844 7.992188 C 8.464844 8.328125 8.402344 8.652344 8.292969 8.953125 L 9.269531 9.515625 C 9.546875 9.203125 9.90625 8.992188 10.292969 8.886719 C 10.816406 8.746094 11.394531 8.804688 11.902344 9.101562 L 11.933594 9.117188 C 12.421875 9.414062 12.75 9.871094 12.886719 10.386719 C 13.027344 10.902344 12.96875 11.484375 12.675781 11.988281 L 12.65625 12.023438 L 12.65625 12.019531 C 12.363281 12.507812 11.902344 12.839844 11.390625 12.976562 C 10.867188 13.117188 10.289062 13.054688 9.785156 12.765625 L 9.785156 12.761719 C 9.277344 12.46875 8.9375 12 8.796875 11.476562 C 8.691406 11.089844 8.699219 10.671875 8.832031 10.277344 L 7.851562 9.710938 C 7.792969 9.78125 7.734375 9.84375 7.671875 9.90625 L 7.667969 9.910156 C 7.277344 10.304688 6.761719 10.578125 6.191406 10.667969 L 6.191406 11.800781 C 6.597656 11.882812 6.964844 12.085938 7.25 12.375 C 7.632812 12.757812 7.871094 13.289062 7.871094 13.871094 C 7.871094 14.453125 7.632812 14.980469 7.25 15.363281 L 7.25 15.367188 C 6.863281 15.75 6.335938 15.988281 5.753906 15.988281 C 5.171875 15.988281 4.644531 15.75 4.257812 15.367188 L 4.257812 15.363281 C 3.875 14.980469 3.636719 14.453125 3.636719 13.871094 C 3.636719 13.289062 3.875 12.757812 4.257812 12.375 C 4.542969 12.085938 4.910156 11.882812 5.3125 11.800781 L 5.3125 10.667969 C 4.742188 10.578125 4.230469 10.304688 3.839844 9.910156 L 3.835938 9.90625 C 3.347656 9.417969 3.042969 8.742188 3.042969 7.992188 C 3.042969 7.246094 3.347656 6.570312 3.835938 6.078125 L 3.839844 6.078125 C 4.230469 5.683594 4.742188 5.410156 5.3125 5.316406 L 5.3125 4.1875 C 4.910156 4.101562 4.542969 3.898438 4.257812 3.613281 L 4.257812 3.609375 C 3.875 3.226562 3.636719 2.699219 3.636719 2.117188 C 3.636719 1.535156 3.875 1.003906 4.257812 0.621094 C 4.644531 0.238281 5.171875 0 5.753906 0 C 6.335938 0 6.863281 0.238281 7.25 0.621094 C 7.632812 1.003906 7.871094 1.535156 7.871094 2.117188 C 7.871094 2.699219 7.632812 3.226562 7.25 3.609375 L 7.25 3.613281 C 6.964844 3.898438 6.597656 4.101562 6.191406 4.1875 Z M 11.695312 4.566406 L 11.6875 4.554688 C 11.550781 4.324219 11.335938 4.171875 11.097656 4.105469 C 10.851562 4.042969 10.585938 4.070312 10.351562 4.203125 C 10.117188 4.339844 9.960938 4.558594 9.894531 4.800781 C 9.828125 5.042969 9.855469 5.3125 9.992188 5.546875 L 9.996094 5.554688 C 10.132812 5.785156 10.347656 5.9375 10.589844 6 C 10.832031 6.070312 11.101562 6.039062 11.332031 5.90625 L 11.34375 5.898438 C 11.574219 5.761719 11.726562 5.546875 11.789062 5.308594 C 11.855469 5.066406 11.828125 4.796875 11.695312 4.566406 Z M 11.695312 4.566406 "/>
</g>
</svg>
