<?xml version="1.0" encoding="UTF-8"?>
<svg xmlns="http://www.w3.org/2000/svg" xmlns:xlink="http://www.w3.org/1999/xlink" width="16px" height="16px" viewBox="0 0 16 16" version="1.1">
<g id="surface1">
<path style=" stroke:none;fill-rule:nonzero;fill:rgb(7.450981%,66.666669%,32.156864%);fill-opacity:1;" d="M 16 8 C 16 3.582031 12.417969 0 8 0 C 3.582031 0 0 3.582031 0 8 C 0 12.417969 3.582031 16 8 16 C 12.417969 16 16 12.417969 16 8 Z M 16 8 "/>
<path style=" stroke:none;fill-rule:nonzero;fill:rgb(100%,100%,100%);fill-opacity:1;" d="M 10.136719 7.023438 C 9.632812 4.792969 8.4375 4.058594 8.308594 3.777344 C 8.167969 3.582031 8.027344 3.230469 8.027344 3.230469 C 8.023438 3.222656 8.019531 3.214844 8.015625 3.203125 C 8.003906 3.402344 7.996094 3.476562 7.808594 3.675781 C 7.519531 3.902344 6.035156 5.148438 5.914062 7.683594 C 5.800781 10.046875 7.621094 11.453125 7.867188 11.632812 L 7.894531 11.652344 C 7.894531 11.664062 7.972656 12.214844 8.027344 12.796875 L 8.21875 12.796875 C 8.265625 12.382812 8.332031 11.976562 8.421875 11.570312 L 8.4375 11.558594 C 8.546875 11.480469 8.652344 11.394531 8.75 11.304688 L 8.761719 11.292969 C 9.285156 10.808594 10.226562 9.691406 10.21875 7.910156 C 10.214844 7.613281 10.1875 7.316406 10.136719 7.023438 Z M 8.003906 10.296875 C 8.003906 10.296875 8.003906 6.984375 8.113281 6.984375 C 8.199219 6.984375 8.3125 11.261719 8.3125 11.261719 C 8.160156 11.242188 8.003906 10.554688 8.003906 10.296875 Z M 8.003906 10.296875 "/>
</g>
</svg>
