<?xml version="1.0" encoding="UTF-8"?>
<svg xmlns="http://www.w3.org/2000/svg" xmlns:xlink="http://www.w3.org/1999/xlink" width="16px" height="16px" viewBox="0 0 16 16" version="1.1">
<g id="surface1">
<path style=" stroke:none;fill-rule:nonzero;fill:rgb(0%,36.862746%,72.156864%);fill-opacity:1;" d="M 15.433594 5.875 C 15.121094 5.875 14.867188 6.128906 14.867188 6.441406 C 14.867188 11.09375 11.09375 14.867188 6.441406 14.867188 C 6.128906 14.867188 5.875 15.121094 5.875 15.433594 C 5.875 15.746094 6.128906 16 6.441406 16 C 11.71875 16 16 11.71875 16 6.441406 C 16 6.128906 15.746094 5.875 15.433594 5.875 Z M 15.433594 5.875 "/>
<path style=" stroke:none;fill-rule:nonzero;fill:rgb(0%,23.137255%,36.078432%);fill-opacity:1;" d="M 12.019531 9.5 C 12.5625 8.613281 13.089844 7.429688 12.988281 5.773438 C 12.773438 2.34375 9.664062 -0.261719 6.730469 0.0195312 C 5.582031 0.132812 4.402344 1.066406 4.507812 2.746094 C 4.550781 3.472656 4.910156 3.902344 5.488281 4.234375 C 6.039062 4.550781 6.75 4.75 7.554688 4.976562 C 8.523438 5.25 9.648438 5.554688 10.515625 6.191406 C 11.554688 6.957031 12.261719 7.84375 12.019531 9.5 Z M 12.019531 9.5 "/>
<path style=" stroke:none;fill-rule:nonzero;fill:rgb(0%,36.862746%,72.156864%);fill-opacity:1;" d="M 0.980469 3.5 C 0.4375 4.386719 -0.0898438 5.570312 0.0117188 7.226562 C 0.226562 10.65625 3.335938 13.261719 6.269531 12.980469 C 7.417969 12.867188 8.597656 11.933594 8.492188 10.253906 C 8.449219 9.527344 8.089844 9.097656 7.511719 8.765625 C 6.960938 8.449219 6.25 8.25 5.445312 8.023438 C 4.476562 7.75 3.351562 7.445312 2.484375 6.808594 C 1.445312 6.042969 0.738281 5.15625 0.980469 3.5 Z M 0.980469 3.5 "/>
</g>
</svg>
