<?xml version="1.0" encoding="UTF-8"?>
<svg xmlns="http://www.w3.org/2000/svg" xmlns:xlink="http://www.w3.org/1999/xlink" width="16px" height="17px" viewBox="0 0 16 16" version="1.1">
<g id="surface1">
<path style="fill-rule:nonzero;fill:rgb(0%,0%,0%);fill-opacity:1;stroke-width:37.395302;stroke-linecap:butt;stroke-linejoin:miter;stroke:rgb(0%,0%,0%);stroke-opacity:1;stroke-miterlimit:4;" d="M 323.15625 324.191406 C 326.003906 300.58418 325.160156 297.211719 342.773438 301.019336 L 347.203125 301.345703 C 360.703125 301.998437 378.421875 299.169922 388.863281 294.383203 C 411.222656 284.048242 424.40625 266.641992 402.363281 271.211133 C 352.054688 281.654883 348.679688 264.575 348.679688 264.575 C 401.730469 185.811719 423.984375 85.725781 404.789062 61.248242 C 352.476562 -5.548242 261.984375 26.000586 260.507812 26.870898 L 260.085938 26.979687 C 250.066406 24.912695 238.992188 23.716016 226.441406 23.498437 C 203.765625 23.063281 186.46875 29.481836 173.390625 39.381641 C 173.390625 39.381641 11.917969 -27.088477 19.40625 123.04043 C 21.09375 154.915625 65.179688 364.660937 117.914062 301.345703 C 137.214844 278.173633 155.777344 258.591602 155.777344 258.591602 C 165.058594 264.683789 176.132812 267.838672 187.734375 266.750781 L 188.578125 265.989258 C 188.367188 268.817773 188.472656 271.646289 189 274.909961 C 175.394531 290.14043 179.402344 292.751367 152.191406 298.408398 C 124.769531 304.06543 140.90625 314.074023 151.453125 316.79375 C 164.214844 319.948633 193.746094 324.408984 213.679688 296.558984 L 212.941406 299.713867 C 218.214844 303.956641 217.898438 330.283594 218.636719 349.104102 C 219.375 368.033398 220.640625 385.548437 224.542969 395.883398 C 228.339844 406.327148 232.875 432.980469 268.523438 425.365234 C 298.371094 418.94668 321.152344 409.699609 323.15625 324.191406 " transform="matrix(0.037037,0,0,0.0359066,0,0)"/>
<path style=" stroke:none;fill-rule:nonzero;fill:rgb(20%,40.392157%,56.862748%);fill-opacity:1;" d="M 14.902344 9.738281 C 13.039062 10.113281 12.914062 9.5 12.914062 9.5 C 14.878906 6.671875 15.703125 3.078125 14.992188 2.199219 C 13.054688 -0.199219 9.703125 0.933594 9.648438 0.964844 L 9.632812 0.96875 C 9.261719 0.894531 8.851562 0.851562 8.386719 0.84375 C 7.546875 0.828125 6.90625 1.054688 6.421875 1.414062 C 6.421875 1.414062 0.441406 -0.972656 0.71875 4.417969 C 0.78125 5.5625 2.414062 13.09375 4.367188 10.820312 C 5.082031 9.988281 5.769531 9.285156 5.769531 9.285156 C 6.113281 9.503906 6.523438 9.617188 6.953125 9.578125 L 6.984375 9.550781 C 6.976562 9.652344 6.980469 9.753906 7 9.871094 C 6.496094 10.417969 6.644531 10.511719 5.636719 10.714844 C 4.621094 10.917969 5.21875 11.277344 5.609375 11.375 C 6.082031 11.488281 7.175781 11.648438 7.914062 10.648438 L 7.886719 10.761719 C 8.082031 10.914062 8.222656 11.757812 8.199219 12.519531 C 8.175781 13.28125 8.160156 13.808594 8.3125 14.214844 C 8.46875 14.625 8.625 15.546875 9.945312 15.273438 C 11.050781 15.042969 11.621094 14.449219 11.703125 13.457031 C 11.757812 12.753906 11.886719 12.855469 11.894531 12.226562 L 11.996094 11.929688 C 12.113281 10.972656 12.015625 10.664062 12.695312 10.808594 L 12.859375 10.820312 C 13.359375 10.84375 14.015625 10.742188 14.402344 10.570312 C 15.230469 10.199219 15.71875 9.574219 14.902344 9.738281 Z M 14.902344 9.738281 "/>
<path style="fill:none;stroke-width:12.4651;stroke-linecap:round;stroke-linejoin:round;stroke:rgb(100%,100%,100%);stroke-opacity:1;stroke-miterlimit:4;" d="M 215.894531 286.441602 C 214.523438 336.049414 216.210938 385.874805 221.0625 397.950391 C 225.914062 410.134766 236.25 433.633203 272.003906 426.017969 C 301.746094 419.599414 312.609375 407.30625 317.355469 380.000195 C 320.730469 359.874219 327.480469 304.06543 328.324219 292.642578 " transform="matrix(0.037037,0,0,0.0359066,0,0)"/>
<path style="fill:none;stroke-width:12.4651;stroke-linecap:round;stroke-linejoin:round;stroke:rgb(100%,100%,100%);stroke-opacity:1;stroke-miterlimit:4;" d="M 173.074219 38.29375 C 173.074219 38.29375 11.601562 -27.741211 19.089844 122.387695 C 20.671875 154.262891 64.863281 364.008203 117.597656 300.692969 C 136.792969 277.520898 154.195312 259.353125 154.195312 259.353125 " transform="matrix(0.037037,0,0,0.0359066,0,0)"/>
<path style="fill:none;stroke-width:12.4651;stroke-linecap:round;stroke-linejoin:round;stroke:rgb(100%,100%,100%);stroke-opacity:1;stroke-miterlimit:4;" d="M 260.296875 26.218164 C 254.707031 27.958789 350.15625 -8.703125 404.472656 60.595508 C 423.5625 85.073047 401.414062 185.158984 348.257812 263.922266 " transform="matrix(0.037037,0,0,0.0359066,0,0)"/>
<path style="fill:none;stroke-width:12.4651;stroke-linecap:round;stroke-linejoin:bevel;stroke:rgb(100%,100%,100%);stroke-opacity:1;stroke-miterlimit:4;" d="M 348.257812 263.922266 C 348.257812 263.922266 351.738281 281.002148 402.046875 270.558398 C 424.089844 266.098047 410.800781 283.395508 388.441406 293.730469 C 370.089844 302.324805 328.957031 304.500586 328.324219 292.642578 C 326.636719 262.29043 349.945312 271.5375 348.257812 263.922266 C 346.78125 257.068555 336.339844 250.432422 329.378906 233.570117 C 323.367188 218.992383 246.585938 106.72207 350.683594 123.475586 C 354.480469 122.605273 323.578125 24.477539 226.125 22.845703 C 128.777344 21.213867 131.941406 142.622461 131.941406 142.622461 " transform="matrix(0.037037,0,0,0.0359066,0,0)"/>
<path style="fill:none;stroke-width:12.4651;stroke-linecap:round;stroke-linejoin:round;stroke:rgb(100%,100%,100%);stroke-opacity:1;stroke-miterlimit:4;" d="M 188.578125 274.366016 C 175.078125 289.487695 178.980469 292.207422 151.875 297.755664 C 124.453125 303.412695 140.589844 313.530078 151.136719 316.141016 C 163.898438 319.295898 193.429688 323.865039 213.363281 295.90625 C 219.480469 287.420703 213.363281 273.82207 204.925781 270.34082 C 200.917969 268.708984 195.539062 266.533203 188.578125 274.366016 Z M 188.578125 274.366016 " transform="matrix(0.037037,0,0,0.0359066,0,0)"/>
<path style="fill:none;stroke-width:12.4651;stroke-linecap:round;stroke-linejoin:round;stroke:rgb(100%,100%,100%);stroke-opacity:1;stroke-miterlimit:4;" d="M 187.734375 274.039648 C 186.363281 265.118945 190.6875 254.566406 195.222656 242.164453 C 202.183594 223.452734 218.109375 204.849805 205.347656 145.777344 C 195.855469 101.717773 131.941406 136.639062 131.941406 142.622461 C 131.941406 148.605859 134.789062 172.86582 130.886719 201.150977 C 125.71875 238.030469 154.300781 269.25293 187.3125 266.098047 " transform="matrix(0.037037,0,0,0.0359066,0,0)"/>
<path style="fill-rule:nonzero;fill:rgb(100%,100%,100%);fill-opacity:1;stroke-width:4.155;stroke-linecap:butt;stroke-linejoin:miter;stroke:rgb(100%,100%,100%);stroke-opacity:1;stroke-miterlimit:4;" d="M 172.546875 141.752148 C 172.230469 143.710352 176.238281 149.149805 181.511719 149.911328 C 186.679688 150.672852 191.214844 146.430078 191.53125 144.363086 C 191.742188 142.296094 187.734375 140.011523 182.566406 139.358789 C 177.292969 138.597266 172.757812 139.685156 172.546875 141.752148 Z M 172.546875 141.752148 " transform="matrix(0.037037,0,0,0.0359066,0,0)"/>
<path style="fill-rule:nonzero;fill:rgb(100%,100%,100%);fill-opacity:1;stroke-width:2.0775;stroke-linecap:butt;stroke-linejoin:miter;stroke:rgb(100%,100%,100%);stroke-opacity:1;stroke-miterlimit:4;" d="M 331.910156 137.509375 C 332.226562 139.576367 328.21875 145.01582 322.945312 145.777344 C 317.777344 146.430078 313.242188 142.187305 312.925781 140.229102 C 312.714844 138.162109 316.722656 135.877539 321.890625 135.224805 C 327.164062 134.463281 331.699219 135.551172 331.910156 137.509375 Z M 331.910156 137.509375 " transform="matrix(0.037037,0,0,0.0359066,0,0)"/>
<path style="fill:none;stroke-width:12.4651;stroke-linecap:round;stroke-linejoin:round;stroke:rgb(100%,100%,100%);stroke-opacity:1;stroke-miterlimit:4;" d="M 350.683594 123.475586 C 351.527344 139.467578 347.203125 150.346484 346.675781 167.317578 C 345.832031 192.121484 358.488281 220.406641 339.503906 248.800586 " transform="matrix(0.037037,0,0,0.0359066,0,0)"/>
</g>
</svg>
