<?xml version="1.0" encoding="UTF-8"?>
<svg xmlns="http://www.w3.org/2000/svg" xmlns:xlink="http://www.w3.org/1999/xlink" width="16px" height="16px" viewBox="0 0 16 16" version="1.1">
<g id="surface1">
<path style=" stroke:none;fill-rule:nonzero;fill:rgb(100%,100%,100%);fill-opacity:1;" d="M 15 8 C 15 11.339844 12.640625 14.214844 9.363281 14.863281 C 6.089844 15.515625 2.808594 13.761719 1.53125 10.679688 C 0.253906 7.59375 1.335938 4.035156 4.113281 2.179688 C 6.886719 0.324219 10.589844 0.6875 12.949219 3.050781 C 14.265625 4.363281 15.003906 6.144531 15 8 Z M 15 8 "/>
<path style=" stroke:none;fill-rule:nonzero;fill:rgb(42.745098%,60.392159%,0%);fill-opacity:1;" d="M 13.949219 8 C 13.949219 10.839844 11.945312 13.28125 9.160156 13.835938 C 6.375 14.390625 3.589844 12.898438 2.503906 10.277344 C 1.417969 7.652344 2.335938 4.628906 4.695312 3.050781 C 7.054688 1.476562 10.199219 1.785156 12.207031 3.792969 C 13.324219 4.90625 13.953125 6.421875 13.949219 8 Z M 13.949219 8 "/>
<path style=" stroke:none;fill-rule:nonzero;fill:rgb(100%,100%,100%);fill-opacity:1;" d="M 5.828125 7.992188 C 5.824219 7.859375 5.875 7.734375 5.96875 7.640625 C 6.058594 7.546875 6.1875 7.496094 6.320312 7.503906 C 6.589844 7.503906 6.804688 7.722656 6.804688 7.992188 C 6.804688 8.261719 6.585938 8.480469 6.316406 8.480469 C 6.046875 8.480469 5.828125 8.261719 5.828125 7.992188 Z M 5.828125 7.992188 "/>
<path style=" stroke:none;fill-rule:nonzero;fill:rgb(100%,100%,100%);fill-opacity:1;" d="M 7.515625 7.992188 C 7.511719 7.859375 7.558594 7.734375 7.652344 7.640625 C 7.746094 7.546875 7.871094 7.496094 8.003906 7.503906 C 8.273438 7.503906 8.492188 7.722656 8.492188 7.992188 C 8.492188 8.261719 8.273438 8.480469 8.003906 8.480469 C 7.734375 8.480469 7.515625 8.261719 7.515625 7.992188 Z M 7.515625 7.992188 "/>
<path style=" stroke:none;fill-rule:nonzero;fill:rgb(100%,100%,100%);fill-opacity:1;" d="M 9.199219 7.992188 C 9.195312 7.859375 9.246094 7.734375 9.335938 7.640625 C 9.429688 7.546875 9.558594 7.496094 9.6875 7.503906 C 9.957031 7.503906 10.175781 7.722656 10.175781 7.992188 C 10.175781 8.261719 9.957031 8.480469 9.6875 8.480469 C 9.417969 8.480469 9.199219 8.261719 9.199219 7.992188 Z M 9.199219 7.992188 "/>
<path style=" stroke:none;fill-rule:nonzero;fill:rgb(100%,100%,100%);fill-opacity:1;" d="M 3.808594 8.445312 L 3.808594 7.570312 C 3.960938 7.570312 4.109375 7.546875 4.25 7.5 C 4.34375 7.449219 4.417969 7.371094 4.46875 7.28125 C 4.535156 7.160156 4.578125 7.027344 4.597656 6.890625 C 4.621094 6.691406 4.628906 6.488281 4.625 6.285156 C 4.613281 5.953125 4.632812 5.625 4.683594 5.296875 C 4.71875 5.128906 4.792969 4.976562 4.910156 4.847656 C 5.015625 4.71875 5.15625 4.625 5.3125 4.574219 C 5.527344 4.519531 5.75 4.5 5.972656 4.507812 L 6.152344 4.507812 L 6.152344 5.226562 C 5.988281 5.214844 5.824219 5.230469 5.664062 5.269531 C 5.597656 5.296875 5.539062 5.347656 5.503906 5.410156 C 5.464844 5.5625 5.449219 5.722656 5.453125 5.878906 C 5.453125 6.03125 5.445312 6.324219 5.425781 6.75 C 5.417969 6.949219 5.390625 7.144531 5.335938 7.335938 C 5.296875 7.46875 5.234375 7.59375 5.152344 7.703125 C 5.054688 7.820312 4.9375 7.921875 4.808594 8.003906 C 4.9375 8.082031 5.050781 8.179688 5.140625 8.292969 C 5.230469 8.414062 5.296875 8.550781 5.339844 8.695312 C 5.390625 8.902344 5.421875 9.113281 5.425781 9.328125 C 5.445312 9.730469 5.453125 9.988281 5.453125 10.097656 C 5.445312 10.257812 5.464844 10.414062 5.507812 10.566406 C 5.542969 10.628906 5.601562 10.679688 5.671875 10.710938 C 5.828125 10.753906 5.992188 10.769531 6.15625 10.757812 L 6.15625 11.503906 L 5.972656 11.503906 C 5.753906 11.507812 5.535156 11.476562 5.328125 11.40625 C 5.167969 11.359375 5.023438 11.269531 4.910156 11.148438 C 4.792969 11.023438 4.714844 10.867188 4.683594 10.699219 C 4.636719 10.421875 4.617188 10.140625 4.625 9.855469 C 4.636719 9.566406 4.617188 9.273438 4.570312 8.988281 C 4.539062 8.828125 4.457031 8.679688 4.339844 8.570312 C 4.175781 8.480469 3.996094 8.4375 3.808594 8.445312 Z M 3.808594 8.445312 "/>
<path style=" stroke:none;fill-rule:nonzero;fill:rgb(100%,100%,100%);fill-opacity:1;" d="M 11.640625 8.570312 C 11.523438 8.683594 11.445312 8.828125 11.414062 8.988281 C 11.367188 9.277344 11.347656 9.566406 11.359375 9.859375 C 11.367188 10.140625 11.347656 10.421875 11.300781 10.699219 C 11.265625 10.867188 11.1875 11.023438 11.070312 11.148438 C 10.957031 11.273438 10.816406 11.363281 10.65625 11.410156 C 10.445312 11.480469 10.230469 11.511719 10.007812 11.507812 L 9.828125 11.507812 L 9.828125 10.765625 C 9.988281 10.773438 10.152344 10.757812 10.308594 10.714844 C 10.378906 10.6875 10.4375 10.636719 10.476562 10.570312 C 10.519531 10.417969 10.535156 10.261719 10.53125 10.105469 C 10.53125 9.992188 10.539062 9.734375 10.554688 9.332031 C 10.5625 9.121094 10.589844 8.90625 10.644531 8.699219 C 10.683594 8.554688 10.75 8.417969 10.84375 8.300781 C 10.933594 8.183594 11.046875 8.085938 11.171875 8.011719 C 11.042969 7.929688 10.929688 7.828125 10.832031 7.710938 C 10.75 7.597656 10.6875 7.472656 10.648438 7.339844 C 10.59375 7.152344 10.5625 6.953125 10.558594 6.757812 C 10.539062 6.328125 10.527344 6.039062 10.527344 5.886719 C 10.535156 5.726562 10.515625 5.570312 10.476562 5.414062 C 10.441406 5.351562 10.386719 5.304688 10.320312 5.277344 C 10.160156 5.238281 9.996094 5.222656 9.832031 5.230469 L 9.832031 4.507812 L 10.011719 4.507812 C 10.234375 4.5 10.453125 4.519531 10.671875 4.574219 C 10.828125 4.625 10.96875 4.71875 11.074219 4.847656 C 11.191406 4.976562 11.265625 5.132812 11.296875 5.300781 C 11.347656 5.625 11.371094 5.953125 11.359375 6.285156 C 11.355469 6.488281 11.363281 6.691406 11.386719 6.890625 C 11.402344 7.027344 11.445312 7.160156 11.515625 7.28125 C 11.566406 7.375 11.640625 7.449219 11.734375 7.5 C 11.875 7.546875 12.023438 7.574219 12.175781 7.574219 L 12.175781 8.445312 C 11.988281 8.441406 11.804688 8.484375 11.640625 8.570312 Z M 11.640625 8.570312 "/>
</g>
</svg>
